<svg width="18" height="18" viewBox="0 0 18 18" fill="none" xmlns="http://www.w3.org/2000/svg">
<g id="elements">
<path id="Rectangle 1772 (Stroke)" opacity="0.4" d="M9.04732 0.458374C10.8729 0.458363 12.3068 0.458354 13.4263 0.608869C14.5735 0.763108 15.4838 1.08564 16.1989 1.8008C16.9141 2.51597 17.2366 3.42618 17.3908 4.57339C17.5414 5.6929 17.5414 7.1268 17.5413 8.95238V8.9524V9.04768V9.0477C17.5414 10.8733 17.5414 12.3072 17.3908 13.4267C17.2366 14.5739 16.9141 15.4841 16.1989 16.1993C15.4838 16.9144 14.5735 17.237 13.4263 17.3912C12.3068 17.5417 10.8729 17.5417 9.04733 17.5417H9.04731H8.95204H8.95202C7.12643 17.5417 5.69254 17.5417 4.57303 17.3912C3.42581 17.237 2.5156 16.9144 1.80044 16.1993C1.08527 15.4841 0.762742 14.5739 0.608503 13.4267C0.457988 12.3072 0.457997 10.8733 0.458008 9.04769V8.9524C0.457997 7.12681 0.457988 5.69291 0.608503 4.57339C0.762742 3.42618 1.08527 2.51597 1.80044 1.8008C2.5156 1.08564 3.42581 0.763108 4.57303 0.608869C5.69254 0.458354 7.12644 0.458363 8.95203 0.458374H9.04732Z" fill="#E8C02E"/>
<g id="Vector">
<path fill-rule="evenodd" clip-rule="evenodd" d="M9 6.08341C8.53976 6.08341 8.16667 6.45651 8.16667 6.91675C8.16667 7.37699 7.79357 7.75008 7.33333 7.75008C6.8731 7.75008 6.5 7.37699 6.5 6.91675C6.5 5.53604 7.61929 4.41675 9 4.41675C10.3807 4.41675 11.5 5.53604 11.5 6.91675C11.5 7.41319 11.3544 7.87818 11.1034 8.26834C10.9527 8.50244 10.7781 8.72376 10.6226 8.91704C10.5935 8.95319 10.5651 8.9883 10.5374 9.02258C10.4087 9.18191 10.2943 9.3235 10.1884 9.46913C9.92495 9.83115 9.83333 10.0643 9.83333 10.2501C9.83333 10.7103 9.46024 11.0834 9 11.0834C8.53976 11.0834 8.16667 10.7103 8.16667 10.2501C8.16667 9.51542 8.52731 8.91924 8.84067 8.48855C8.97388 8.30547 9.12011 8.12461 9.24938 7.96472C9.27502 7.93301 9.29999 7.90213 9.32405 7.87222C9.47821 7.68063 9.6034 7.51941 9.70181 7.36647C9.78499 7.2372 9.83333 7.08389 9.83333 6.91675C9.83333 6.45651 9.46024 6.08341 9 6.08341Z" fill="#E8C02E"/>
<path fill-rule="evenodd" clip-rule="evenodd" d="M8.16667 12.7501C8.16667 12.2898 8.53809 11.9167 8.99627 11.9167H9.00373C9.46191 11.9167 9.83333 12.2898 9.83333 12.7501C9.83333 13.2103 9.46191 13.5834 9.00373 13.5834H8.99627C8.53809 13.5834 8.16667 13.2103 8.16667 12.7501Z" fill="#E8C02E"/>
</g>
</g>
</svg>
