<svg width="25" height="24" viewBox="0 0 25 24" fill="none" xmlns="http://www.w3.org/2000/svg">
<g id="add_black_24dp-2 3" clip-path="url(#clip0_525_4194)">
<path id="Vector" d="M18.9124 13H13.8685V18C13.8685 18.55 13.4146 19 12.8597 19C12.3049 19 11.851 18.55 11.851 18V13H6.80711C6.25229 13 5.79834 12.55 5.79834 12C5.79834 11.45 6.25229 11 6.80711 11H11.851V6C11.851 5.45 12.3049 5 12.8597 5C13.4146 5 13.8685 5.45 13.8685 6V11H18.9124C19.4672 11 19.9211 11.45 19.9211 12C19.9211 12.55 19.4672 13 18.9124 13Z" fill="#B7B7B7"/>
</g>
<defs>
<clipPath id="clip0_525_4194">
<rect width="24.2105" height="24" fill="white" transform="translate(0.754395)"/>
</clipPath>
</defs>
</svg>
