<svg width="15" height="14" viewBox="0 0 15 14" fill="none" xmlns="http://www.w3.org/2000/svg">
<g id="elements">
<path id="Ellipse 1649 (Stroke)" d="M9.16602 11.8333C9.16602 10.9129 9.91221 10.1667 10.8327 10.1667C11.7532 10.1667 12.4993 10.9129 12.4993 11.8333C12.4993 12.7538 11.7532 13.5 10.8327 13.5C9.91221 13.5 9.16602 12.7538 9.16602 11.8333Z" fill="white"/>
<path id="Ellipse 1649 (Stroke)_2" d="M2.5 11.8333C2.5 10.9129 3.24619 10.1667 4.16667 10.1667C5.08714 10.1667 5.83333 10.9129 5.83333 11.8333C5.83333 12.7538 5.08714 13.5 4.16667 13.5C3.24619 13.5 2.5 12.7538 2.5 11.8333Z" fill="white"/>
<path id="Union" fill-rule="evenodd" clip-rule="evenodd" d="M0.999674 1.99609C0.631485 1.99609 0.333008 2.29457 0.333008 2.66276C0.333008 3.03095 0.631485 3.32942 0.999675 3.32942L3.66637 3.32942L3.66635 3.72559C3.66627 3.84269 3.66617 3.98645 3.68088 4.10408L3.68116 4.10631C3.69167 4.19061 3.73956 4.57464 4.11663 4.75754C4.49451 4.94085 4.82794 4.73956 4.90007 4.69601L4.90276 4.69439C5.00477 4.63291 5.2124 4.46992 5.2124 4.46992C5.46295 4.2735 5.80592 4.00303 6.06659 3.74941C6.19667 3.62286 6.33082 3.47801 6.43672 3.32407C6.53086 3.18723 6.66637 2.95377 6.66637 2.66666C6.66637 2.37955 6.53086 2.14609 6.43672 2.00925C6.33082 1.85531 6.19667 1.71047 6.06659 1.58391C5.80592 1.33029 5.46295 1.05983 5.2124 0.863408C5.2124 0.863408 5.00478 0.70041 4.90276 0.638933L4.90007 0.63731C4.82793 0.593762 4.49451 0.392473 4.11663 0.575778C3.73956 0.758687 3.69167 1.14271 3.68116 1.22701L3.68088 1.22924C3.66617 1.34687 3.66627 1.49064 3.66635 1.60773L3.66637 1.99609L0.999674 1.99609Z" fill="white"/>
<path id="Union_2" opacity="0.5" fill-rule="evenodd" clip-rule="evenodd" d="M0.391592 4.22199C0.450175 4.16341 0.544461 4.16341 0.733034 4.16343L2.49448 4.16354C2.65411 4.16355 2.73392 4.16355 2.78678 4.20242C2.83964 4.24128 2.86756 4.33064 2.9234 4.50936C3.02095 4.82159 3.24341 5.26081 3.75292 5.50796C4.54153 5.89051 5.22158 5.47652 5.32491 5.41362C5.37349 5.37553 5.44323 5.32193 5.52614 5.2582L5.52619 5.25816L5.52621 5.25814C5.86056 5.00116 6.40897 4.57962 6.64772 4.34733C6.79609 4.20297 6.97342 4.01488 7.12329 3.79702C7.24709 3.61706 7.4997 3.2106 7.4997 2.66731C7.4997 2.5135 7.47946 2.37066 7.44762 2.24083C7.39656 2.03259 7.37103 1.92848 7.42055 1.87573C7.47007 1.82299 7.55681 1.83853 7.73028 1.86962C7.83463 1.88832 7.94723 1.91683 8.07872 1.9603C8.23399 2.01163 8.34566 2.05248 8.43412 2.09441C8.5372 2.14327 8.59944 2.18947 8.64643 2.22435L8.64814 2.22562C8.97671 2.4695 9.24292 2.79216 9.42086 3.16666H10.4488L10.4786 3.16666C10.9127 3.16665 11.2845 3.16663 11.593 3.19716C11.9227 3.2298 12.2311 3.30092 12.5254 3.4732C12.8196 3.64548 13.0297 3.87786 13.2153 4.14694C13.389 4.39869 13.5653 4.71955 13.7711 5.0942L14.5914 6.58736C14.6499 6.69397 14.6734 6.80991 14.6655 6.9224C14.6661 6.93192 14.6663 6.94152 14.6663 6.95118V8.33422C14.6664 9.09798 14.6664 9.72105 14.601 10.2127C14.5327 10.7259 14.3851 11.1704 14.0336 11.5257C13.8607 11.7004 13.6656 11.826 13.4506 11.9167C13.3936 11.9407 13.333 11.8956 13.333 11.8338C13.333 10.4531 12.2137 9.33381 10.833 9.33381C9.4523 9.33381 8.33301 10.4531 8.33301 11.8338C8.33301 11.9312 8.33301 11.9798 8.32357 12.0095C8.30226 12.0764 8.26063 12.118 8.19373 12.1393C8.1641 12.1487 8.1217 12.1487 8.03691 12.1487H6.96245C6.87765 12.1487 6.83525 12.1487 6.80563 12.1393C6.73873 12.118 6.6971 12.0764 6.67578 12.0095C6.66634 11.9798 6.66634 11.9312 6.66634 11.8338C6.66634 10.4531 5.54705 9.33381 4.16634 9.33381C2.78563 9.33381 1.66634 10.4531 1.66634 11.8338C1.66634 11.8956 1.60571 11.9407 1.54878 11.9167C1.33379 11.826 1.1387 11.7004 0.965754 11.5257C0.614231 11.1704 0.466666 10.7259 0.398397 10.2127C0.332984 9.72105 0.332995 9.09793 0.333008 8.33418V8.33417V4.56343C0.333008 4.37485 0.333008 4.28057 0.391592 4.22199ZM13.082 6.45118L12.6731 5.70692C12.4492 5.29941 12.3027 5.0343 12.169 4.84045C12.0432 4.65818 11.9574 4.58277 11.8776 4.5361C11.7979 4.48942 11.6895 4.45107 11.4661 4.42896C11.2286 4.40545 10.921 4.40472 10.4488 4.40472H9.66276C9.66652 4.57578 9.66645 4.76345 9.66637 4.9722L9.66634 5.06472C9.66634 5.60489 9.6724 5.75755 9.70761 5.86706C9.79101 6.12646 9.99133 6.32733 10.2436 6.41018C10.3493 6.44489 10.4974 6.45118 11.033 6.45118H13.082Z" fill="white"/>
</g>
</svg>
