<svg width="18" height="18" viewBox="0 0 18 18" fill="none" xmlns="http://www.w3.org/2000/svg">
<g id="elements">
<path id="Union" opacity="0.4" d="M9.04732 0.458252L8.95203 0.458252C7.12645 0.458241 5.69254 0.458233 4.57303 0.608747C3.42581 0.762986 2.5156 1.08551 1.80044 1.80068C1.08527 2.51584 0.762742 3.42606 0.608503 4.57327C0.457988 5.69279 0.457997 7.12669 0.458008 8.95227L0.458008 9.04756C0.457997 10.8732 0.457988 12.3071 0.608503 13.4266C0.762742 14.5738 1.08527 15.484 1.80044 16.1992C2.5156 16.9143 3.42581 17.2369 4.57303 17.3911C5.69254 17.5416 7.12643 17.5416 8.95201 17.5416H9.04731C10.8729 17.5416 12.3068 17.5416 13.4263 17.3911C14.5735 17.2369 15.4837 16.9143 16.1989 16.1992C16.9141 15.484 17.2366 14.5738 17.3908 13.4266C17.5414 12.3071 17.5414 10.8732 17.5413 9.04759V8.95228C17.5414 7.1267 17.5414 5.69278 17.3908 4.57327C17.2366 3.42606 16.9141 2.51584 16.1989 1.80068C15.4837 1.08551 14.5735 0.762986 13.4263 0.608747C12.3068 0.458233 10.8729 0.458241 9.04732 0.458252Z" fill="#2E3FE8"/>
<path id="Intersect" d="M13.166 4.62501L12.2675 4.625C11.5378 4.62494 10.8889 4.62489 10.3651 4.69531C9.79573 4.77186 9.22081 4.94838 8.75093 5.41826C8.28106 5.88814 8.10454 6.46306 8.02799 7.03242C7.95756 7.55625 7.95762 8.2051 7.95768 8.93474L7.95768 9.62501H7.33268C6.75739 9.62501 6.29102 10.0914 6.29102 10.6667C6.29102 11.242 6.75739 11.7083 7.33268 11.7083H7.95768L7.95768 17.5407C8.27536 17.5417 8.60652 17.5417 8.95168 17.5417H9.04699C9.39216 17.5417 9.72333 17.5417 10.041 17.5407L10.041 11.7083H11.4993C12.0746 11.7083 12.541 11.242 12.541 10.6667C12.541 10.0914 12.0746 9.62501 11.4993 9.62501H10.041L10.041 9.00001C10.041 8.18489 10.0432 7.67833 10.0927 7.31002C10.1374 6.97759 10.2034 6.91193 10.2231 6.8924L10.2241 6.8914L10.2251 6.89039C10.2446 6.87076 10.3103 6.80476 10.6427 6.76007C11.011 6.71055 11.5176 6.70834 12.3327 6.70834H13.166C13.7413 6.70834 14.2077 6.24197 14.2077 5.66667C14.2077 5.09138 13.7413 4.62501 13.166 4.62501Z" fill="#2E3FE8"/>
</g>
</svg>
