<svg width="135" height="156" viewBox="0 0 135 156" fill="none" xmlns="http://www.w3.org/2000/svg">
<g id="success" clip-path="url(#clip0_537_5505)">
<path id="Vector" d="M36.3644 47.5357C35.4083 47.9008 34.432 48.2103 33.4403 48.4627C32.1303 48.7827 31.3907 48.931 30.1264 48.4391C30.082 48.4219 30.0396 48.4048 29.9996 48.388C27.6031 47.3666 25.5545 45.6689 24.1032 43.5015C22.6519 41.334 21.8604 38.7904 21.8252 36.1803C21.8188 36.0907 21.8188 35.9966 21.8188 35.9048C21.8176 35.4624 21.8387 35.0202 21.882 34.58C21.9374 33.9803 22.0331 33.3851 22.1685 32.7983L22.1558 32.796C21.1322 31.7468 20.7383 30.3095 20.8689 28.8653C20.9584 27.8862 21.2684 26.9403 21.7755 26.0987C22.2826 25.2572 22.9737 24.542 23.7966 24.007C25.0863 23.1942 26.5405 22.6797 28.0534 22.5009C28.4597 22.4539 28.8682 22.4301 29.2772 22.4297H33.119C33.9125 22.2435 34.7186 22.1161 35.5307 22.0485H35.537C43.2692 21.4057 49.3668 26.5441 48.7981 32.796C48.7939 32.8029 48.7876 32.8098 48.7834 32.8167C48.6191 33.0853 48.4738 33.3402 48.3453 33.5835C48.221 33.8108 48.1157 34.0289 48.0251 34.2356C47.3195 35.8336 50.6727 60.6265 49.47 61.0031C48.7855 61.2166 46.0263 42.7675 46.5212 46.2757C47.1447 50.6771 39.9266 46.2157 36.3644 47.5357Z" fill="#0F0F0F"/>
<path id="Vector_2" d="M48.0125 92.3542L58.7307 115.244L17.5 111.058L26.1067 89.0842L48.0125 92.3542Z" fill="#DC7676"/>
<path id="Vector_3" d="M69.5284 138.246C62.3586 140.639 54.8028 141.653 47.2577 141.236L43.9767 135.903C43.9767 135.903 43.8394 137.889 43.6344 140.926C40.0428 140.509 36.4979 139.755 33.0463 138.676C26.5007 136.624 20.3648 133.445 14.1451 130.513C12.8854 122.985 12.4127 111.377 19.3775 104.62L56.8655 111.506C56.8655 111.506 62.8802 116.015 61.2712 117.63C59.6621 119.243 59.413 118.994 60.4701 120.053C61.5273 121.113 63.8117 122.53 63.835 123.457C63.8443 123.818 66.4081 130.38 69.5284 138.246Z" fill="#0F0F0F"/>
<path id="Vector_4" d="M41.466 48.1237L32.409 48.7571L26.5551 54.4275L24.505 54.7943C22.6622 55.1236 21.004 56.1194 19.8448 57.5928C18.6857 59.0662 18.1063 60.9147 18.2164 62.7879C18.6381 69.9499 19.5823 80.6511 21.5557 84.123C24.6158 89.5065 27.1433 87.8174 24.6158 89.5065C22.0883 91.1956 20.3913 89.8683 21.5557 92.5377C22.7201 95.2072 19.982 98.6311 19.982 98.6311L18.892 99.7238L20.0481 100.199L56.8855 105.004C56.8855 105.004 53.7003 90.6478 55.6923 87.1212C57.6843 83.5947 62.5142 72.9346 58.2036 68.7635L53.9889 53.8959L46.7391 51.7525L41.466 48.1237Z" fill="#C51A1B"/>
<path id="Vector_5" d="M96.2921 107.045C95.686 107.025 95.0913 106.874 94.5491 106.602C94.0069 106.33 93.5302 105.942 93.152 105.467C92.7738 104.992 92.503 104.44 92.3585 103.85C92.2139 103.26 92.199 102.645 92.3148 102.048L75.0352 90.3173L77.0969 84.7285L97.5186 98.8116C98.5061 99.0817 99.3605 99.7055 99.9198 100.565C100.479 101.424 100.705 102.459 100.553 103.474C100.402 104.489 99.8848 105.413 99.0995 106.071C98.3141 106.729 97.3152 107.075 96.2921 107.045Z" fill="#DC7676"/>
<path id="Vector_6" d="M47.4855 53.1937L44.9746 54.1904L58.369 80.4138L86.0977 99.3603L90.0947 92.5884L68.9874 74.3128L60.5369 58.067C59.3477 55.7807 57.3555 54.0173 54.9451 53.1173C52.5347 52.2172 49.8771 52.2445 47.4855 53.1937Z" fill="#C51A1B"/>
<path id="Vector_7" d="M36.4661 45.8175C41.4888 45.8175 45.5606 41.7359 45.5606 36.701C45.5606 31.6661 41.4888 27.5845 36.4661 27.5845C31.4433 27.5845 27.3716 31.6661 27.3716 36.701C27.3716 41.7359 31.4433 45.8175 36.4661 45.8175Z" fill="#DC7676"/>
<path id="Vector_8" d="M44.3748 32.8459C44.2232 32.9261 44.0736 33 43.922 33.0739C43.764 33.1499 43.606 33.2259 43.446 33.2977C40.4024 34.6807 37.9233 34.8348 36.4194 32.8459C36.3783 31.7995 36.1433 30.77 35.7265 29.8098C35.8001 30.8828 35.518 31.9502 34.924 32.8459H31.8951C28.7757 34.9214 27.175 36.8279 29.3402 43.6413C29.4813 44.0889 30.4481 59.9917 30.724 61.2142C26.0018 59.3984 21.9282 40.1195 21.825 35.0396C21.8187 34.9573 21.8187 34.8707 21.8187 34.7862C21.8175 34.3793 21.8386 33.9726 21.8819 33.568C21.9375 33.0156 22.0332 32.468 22.1684 31.9296L22.1557 31.9274C21.6752 31.467 21.3087 30.9004 21.0853 30.2729C20.8618 29.6453 20.7877 28.9741 20.8688 28.3128C21.661 27.273 22.6413 26.392 23.7586 25.7158C24.7745 25.2227 25.8335 24.824 26.9222 24.525C26.9496 24.5187 26.9728 24.5123 27.0001 24.506C27.3329 24.4152 27.6742 24.3329 28.0154 24.2611C28.7185 24.1133 29.4295 24.0054 30.1448 23.9381C30.1975 23.9359 30.248 23.9317 30.2944 23.9317C30.5805 23.9319 30.8613 24.0092 31.1074 24.1555C31.1095 24.1555 31.1095 24.1576 31.1137 24.1576C31.3502 24.2993 31.5463 24.4995 31.6831 24.7391C31.82 24.9788 31.893 25.2497 31.8951 25.5258H35.2694C35.3937 25.5258 35.5179 25.53 35.6422 25.5363C40.3413 25.7242 44.1179 27.7385 44.3601 32.3687C44.3706 32.5292 44.3748 32.6854 44.3748 32.8459Z" fill="#0F0F0F"/>
<path id="Vector_9" d="M24.4256 33.2124C27.7346 33.2124 30.4171 30.5234 30.4171 27.2064C30.4171 23.8894 27.7346 21.2004 24.4256 21.2004C21.1166 21.2004 18.4341 23.8894 18.4341 27.2064C18.4341 30.5234 21.1166 33.2124 24.4256 33.2124Z" fill="#0F0F0F"/>
<path id="Vector_10" d="M32.6516 24.4285C31.9709 27.6745 28.6126 29.616 25.3998 28.8218C23.857 28.4404 22.5285 27.4603 21.7065 26.0971C20.8846 24.7338 20.6366 23.0991 21.0171 21.5525C21.8093 18.332 25.7084 19.2605 28.2688 17.1592C31.8908 14.1867 33.5695 20.0509 32.6516 24.4285Z" fill="#0F0F0F"/>
<path id="Vector_11" d="M19.339 114.787C24.4455 93.9123 34.5634 75.9704 51.3201 61.9133C51.9686 60.8438 53.0138 60.076 54.2264 59.7781C55.439 59.4802 56.72 59.6766 57.7883 60.3242L97.6232 84.5353C98.69 85.1854 99.456 86.2331 99.7532 87.4487C100.05 88.6642 99.8544 89.9482 99.2083 91.0191C92.8125 112.438 83.2331 131.025 67.2273 143.892C66.5788 144.962 65.5336 145.73 64.321 146.028C63.1084 146.326 61.8275 146.129 60.7592 145.481L20.9243 121.27C19.8575 120.62 19.0914 119.573 18.7942 118.357C18.497 117.142 18.693 115.857 19.339 114.787Z" fill="#E7E7E7"/>
<path id="Vector_12" opacity="0.2" d="M26.4193 121.821C25.3524 121.171 24.5864 120.124 24.2892 118.908C23.992 117.693 24.188 116.409 24.8341 115.338C29.9405 94.4633 40.0585 76.5215 56.8151 62.4643C57.2444 61.7643 57.8505 61.1904 58.5721 60.8006L57.7883 60.3241C56.7199 59.6765 55.439 59.4801 54.2264 59.778C53.0138 60.0759 51.9686 60.8437 51.3201 61.9131C34.5634 75.9703 24.4455 93.9121 19.3391 114.786C18.693 115.857 18.497 117.141 18.7942 118.357C19.0914 119.572 19.8574 120.62 20.9243 121.27L60.7591 145.481C61.4681 145.909 62.2773 146.141 63.1046 146.154C63.932 146.167 64.7481 145.961 65.4702 145.556L26.4193 121.821Z" fill="#0F0F0F"/>
<path id="Vector_13" d="M73.1355 110.159L46.3965 94.0088C45.9717 93.7515 45.6662 93.3357 45.547 92.8527C45.4278 92.3697 45.5047 91.859 45.7609 91.4328C46.0171 91.0067 46.4315 90.6998 46.9132 90.5797C47.3949 90.4597 47.9044 90.5361 48.3299 90.7924L75.0689 106.943C75.4926 107.2 75.7972 107.616 75.9157 108.099C76.0343 108.581 75.9572 109.091 75.7014 109.517C75.4455 109.942 75.0318 110.249 74.5508 110.369C74.0699 110.49 73.5609 110.414 73.1355 110.159Z" fill="white"/>
<path id="Vector_14" d="M57.5801 88.7423L51.6976 85.1893C51.2713 84.9336 50.9638 84.5187 50.8427 84.0357C50.7215 83.5528 50.7968 83.0414 51.0518 82.614C51.3069 82.1867 51.7208 81.8784 52.2026 81.757C52.6844 81.6356 53.1945 81.711 53.6208 81.9667L53.631 81.9728L59.5135 85.5259C59.9374 85.7836 60.2421 86.1994 60.3607 86.6819C60.4793 87.1645 60.4023 87.6745 60.1464 88.1002C59.8905 88.5259 59.4767 88.8325 58.9956 88.9529C58.5146 89.0732 58.0056 88.9975 57.5801 88.7423Z" fill="white"/>
<path id="Vector_15" d="M68.8855 117.229L42.1465 101.079C41.7212 100.822 41.415 100.407 41.2952 99.9238C41.1753 99.4408 41.2516 98.93 41.5073 98.5034C41.763 98.0768 42.1772 97.7695 42.6589 97.6489C43.1405 97.5283 43.6502 97.6043 44.076 97.8602L44.0798 97.8625L70.8188 114.013C71.2426 114.27 71.5471 114.686 71.6657 115.169C71.7842 115.651 71.7072 116.161 71.4513 116.587C71.1955 117.012 70.7818 117.319 70.3008 117.439C69.8198 117.56 69.3109 117.484 68.8855 117.229Z" fill="white"/>
<path id="Vector_16" d="M76.5311 79.7074C80.8444 79.7074 84.341 76.2023 84.341 71.8786C84.341 67.5549 80.8444 64.0498 76.5311 64.0498C72.2178 64.0498 68.7212 67.5549 68.7212 71.8786C68.7212 76.2023 72.2178 79.7074 76.5311 79.7074Z" fill="#2939D1"/>
<path id="Vector_17" d="M63.069 155.767C72.288 155.767 79.7615 148.275 79.7615 139.034C79.7615 129.792 72.288 122.301 63.069 122.301C53.85 122.301 46.3765 129.792 46.3765 139.034C46.3765 148.275 53.85 155.767 63.069 155.767Z" fill="#F9E8E8"/>
<path id="Vector_18" d="M63.0689 156C59.7214 156 56.4491 155.005 53.6657 153.141C50.8823 151.276 48.713 148.627 47.4319 145.526C46.1509 142.426 45.8157 139.015 46.4688 135.724C47.1218 132.433 48.7338 129.41 51.1008 127.037C53.4679 124.664 56.4837 123.048 59.7669 122.393C63.0501 121.739 66.4532 122.075 69.5459 123.359C72.6386 124.643 75.282 126.818 77.1418 129.608C79.0016 132.398 79.9943 135.678 79.9943 139.034C79.9893 143.532 78.2044 147.844 75.0314 151.025C71.8584 154.206 67.5563 155.995 63.0689 156ZM63.0689 122.534C59.8135 122.534 56.6312 123.502 53.9244 125.315C51.2177 127.128 49.108 129.705 47.8622 132.72C46.6164 135.735 46.2904 139.052 46.9256 142.253C47.5607 145.453 49.1283 148.393 51.4302 150.701C53.7322 153.008 56.665 154.58 59.8579 155.216C63.0508 155.853 66.3602 155.526 69.3679 154.277C72.3755 153.028 74.9461 150.914 76.7547 148.2C78.5633 145.487 79.5286 142.297 79.5286 139.034C79.5237 134.659 77.7879 130.465 74.7022 127.372C71.6165 124.279 67.4328 122.539 63.0689 122.534Z" fill="#2939D1"/>
<path id="Vector_19" d="M60.7914 147.742C60.5032 147.742 60.2189 147.675 59.9611 147.546C59.7033 147.417 59.479 147.229 59.3061 146.998L54.7522 140.911C54.6056 140.715 54.499 140.493 54.4383 140.256C54.3776 140.019 54.364 139.773 54.3984 139.53C54.4328 139.288 54.5145 139.055 54.6388 138.845C54.763 138.634 54.9275 138.451 55.1226 138.304C55.3178 138.157 55.5399 138.05 55.7763 137.99C56.0126 137.929 56.2586 137.916 56.5001 137.951C56.7416 137.985 56.9739 138.067 57.1838 138.192C57.3936 138.317 57.5769 138.482 57.7231 138.678L60.7024 142.659L68.3546 131.154C68.4898 130.95 68.6637 130.776 68.8663 130.639C69.0689 130.503 69.2963 130.409 69.5354 130.361C69.7745 130.313 70.0207 130.313 70.2599 130.36C70.4991 130.408 70.7266 130.502 70.9295 130.637C71.1324 130.773 71.3067 130.947 71.4424 131.15C71.5781 131.353 71.6725 131.581 71.7203 131.821C71.7681 132.061 71.7684 132.307 71.7211 132.547C71.6738 132.787 71.5798 133.015 71.4445 133.219L62.3366 146.913C62.1718 147.161 61.9502 147.366 61.6904 147.51C61.4305 147.654 61.14 147.733 60.8431 147.742C60.8259 147.742 60.8087 147.742 60.7914 147.742Z" fill="#C51A1B"/>
<path id="Vector_20" d="M116.978 54.2393C117.641 54.1825 118.147 53.7614 118.107 53.2988C118.068 52.8363 117.498 52.5074 116.835 52.5642C116.172 52.6211 115.666 53.0422 115.705 53.5047C115.745 53.9673 116.314 54.2962 116.978 54.2393Z" fill="white"/>
<path id="Vector_21" d="M124.441 51.7014C125.104 51.6446 125.61 51.2235 125.57 50.761C125.531 50.2984 124.961 49.9695 124.298 50.0264C123.634 50.0832 123.129 50.5043 123.168 50.9668C123.208 51.4294 123.777 51.7583 124.441 51.7014Z" fill="#2939D1"/>
<path id="Vector_22" d="M113.44 48.5316C114.103 48.4747 114.609 48.0536 114.57 47.5911C114.53 47.1285 113.961 46.7997 113.297 46.8565C112.634 46.9134 112.128 47.3344 112.168 47.797C112.207 48.2595 112.777 48.5884 113.44 48.5316Z" fill="#DC7676"/>
<path id="Vector_23" d="M110.309 46.6924C110.595 46.6277 110.751 46.2418 110.658 45.8304C110.566 45.419 110.259 45.1379 109.973 45.2026C109.688 45.2673 109.532 45.6532 109.624 46.0646C109.717 46.476 110.024 46.757 110.309 46.6924Z" fill="#E7E7E7"/>
<path id="Vector_24" d="M108.08 42.2274C108.366 42.1627 108.522 41.7768 108.429 41.3654C108.337 40.954 108.03 40.673 107.744 40.7376C107.459 40.8023 107.303 41.1882 107.395 41.5996C107.488 42.011 107.795 42.2921 108.08 42.2274Z" fill="#2939D1"/>
<path id="Vector_25" d="M118.774 48.4978C119.06 48.4331 119.216 48.0472 119.123 47.6358C119.03 47.2244 118.724 46.9433 118.438 47.008C118.153 47.0727 117.997 47.4586 118.089 47.87C118.182 48.2813 118.489 48.5624 118.774 48.4978Z" fill="#E7E7E7"/>
<path id="Vector_26" d="M115.514 51.2104C115.8 51.1457 115.956 50.7598 115.863 50.3484C115.771 49.937 115.464 49.656 115.179 49.7206C114.893 49.7853 114.737 50.1712 114.83 50.5826C114.922 50.994 115.229 51.2751 115.514 51.2104Z" fill="#DC7676"/>
<path id="Vector_27" d="M121.449 53.4199C121.734 53.3552 121.891 52.9693 121.798 52.5579C121.705 52.1465 121.399 51.8654 121.113 51.9301C120.828 51.9948 120.671 52.3807 120.764 52.7921C120.857 53.2035 121.163 53.4845 121.449 53.4199Z" fill="#2939D1"/>
<path id="Vector_28" d="M86.1645 19.6525C86.2783 19.2025 85.8474 18.7047 85.2021 18.5408C84.5567 18.3769 83.9413 18.6088 83.8276 19.0588C83.7138 19.5088 84.1447 20.0065 84.7901 20.1705C85.4354 20.3344 86.0508 20.1025 86.1645 19.6525Z" fill="white"/>
<path id="Vector_29" d="M78.2837 19.6015C78.3975 19.1515 77.9665 18.6538 77.3212 18.4899C76.6759 18.3259 76.0605 18.5578 75.9467 19.0079C75.833 19.4579 76.2639 19.9556 76.9092 20.1195C77.5545 20.2835 78.1699 20.0515 78.2837 19.6015Z" fill="#2939D1"/>
<path id="Vector_30" d="M87.6431 26.2066C87.7568 25.7566 87.3259 25.2589 86.6806 25.0949C86.0352 24.931 85.4199 25.1629 85.3061 25.6129C85.1923 26.0629 85.6232 26.5606 86.2686 26.7246C86.9139 26.8885 87.5293 26.6566 87.6431 26.2066Z" fill="#DC7676"/>
<path id="Vector_31" d="M89.4803 28.678C89.527 28.2588 89.3291 27.8926 89.0382 27.86C88.7473 27.8275 88.4736 28.1408 88.4269 28.56C88.3802 28.9791 88.5781 29.3453 88.869 29.3779C89.1599 29.4105 89.4335 29.0971 89.4803 28.678Z" fill="#E7E7E7"/>
<path id="Vector_32" d="M90.1282 33.6283C90.1749 33.2092 89.977 32.843 89.6861 32.8104C89.3952 32.7778 89.1216 33.0912 89.0748 33.5103C89.0281 33.9295 89.226 34.2957 89.5169 34.3283C89.8078 34.3609 90.0815 34.0475 90.1282 33.6283Z" fill="#2939D1"/>
<path id="Vector_33" d="M82.0716 24.1944C82.1183 23.7752 81.9204 23.409 81.6295 23.3765C81.3386 23.3439 81.0649 23.6573 81.0182 24.0764C80.9715 24.4956 81.1694 24.8618 81.4603 24.8943C81.7512 24.9269 82.0248 24.6135 82.0716 24.1944Z" fill="#E7E7E7"/>
<path id="Vector_34" d="M86.0374 22.7009C86.0841 22.2817 85.8862 21.9155 85.5953 21.8829C85.3044 21.8503 85.0307 22.1637 84.984 22.5829C84.9373 23.002 85.1352 23.3682 85.4261 23.4008C85.717 23.4334 85.9907 23.12 86.0374 22.7009Z" fill="#DC7676"/>
<path id="Vector_35" d="M81.1516 18.6658C81.1984 18.2466 81.0004 17.8804 80.7096 17.8479C80.4187 17.8153 80.145 18.1287 80.0983 18.5478C80.0515 18.967 80.2495 19.3332 80.5404 19.3657C80.8312 19.3983 81.1049 19.085 81.1516 18.6658Z" fill="#2939D1"/>
<path id="Vector_36" d="M21.8229 115.008C21.2277 114.763 20.6926 114.392 20.2546 113.92C19.8166 113.448 19.4861 112.886 19.286 112.273C19.0859 111.66 19.021 111.011 19.0958 110.371C19.1705 109.73 19.3832 109.114 19.719 108.564L6.88721 90.4828L11.0037 85.6954L26.0876 107.282C26.969 107.918 27.5872 108.855 27.8251 109.917C28.063 110.979 27.9041 112.091 27.3784 113.044C26.8527 113.996 25.9969 114.722 24.9729 115.084C23.949 115.446 22.8282 115.419 21.8229 115.008Z" fill="#DC7676"/>
<path id="Vector_37" d="M22.1178 57.7093C21.4687 57.3264 20.7046 57.188 19.9628 57.3189C19.221 57.4498 18.55 57.8415 18.0703 58.4236L0.73291 82.7295L16.8002 105.605L23.0874 98.8356L13.3073 83.4298L26.3051 71.0245C27.3732 68.6789 27.5364 66.0197 26.763 63.5606C25.9897 61.1015 24.3348 59.0168 22.1178 57.7093Z" fill="#C51A1B"/>
</g>
<defs>
<clipPath id="clip0_537_5505">
<rect width="134" height="156" fill="white" transform="translate(0.5)"/>
</clipPath>
</defs>
</svg>
